PathFileType  4	(X/Y/Z) /Users/callumsherry/opencap-sandboxes/opencap-core-sandbox/diagnostics/openpose_swapped
DataRate	CameraRate	NumFrames	NumMarkers	Units	OrigDataRate	OrigDataStartFrame	OrigNumFrames
60.0	60.0	18	20	m	60.0	1	651
Frame#	Time	Neck			RShoulder			RElbow			RWrist			LShoulder			LElbow			LWrist			midHip			RHip			RKnee			RAnkle			LHip			LKnee			LAnkle			LBigToe			LSmallToe			LHeel			RBigToe			RSmallToe			RHeel			
		X1	Y1	Z1	X2	Y2	Z2	X3	Y3	Z3	X4	Y4	Z4	X5	Y5	Z5	X6	Y6	Z6	X7	Y7	Z7	X8	Y8	Z8	X9	Y9	Z9	X10	Y10	Z10	X11	Y11	Z11	X12	Y12	Z12	X13	Y13	Z13	X14	Y14	Z14	X15	Y15	Z15	X16	Y16	Z16	X17	Y17	Z17	X18	Y18	Z18	X19	Y19	Z19	X20	Y20	Z20	

1	0.0000000	-0.6297900	1.4677000	-0.1715400	-0.6370000	1.4666400	0.0086900	-0.6668400	1.1917300	0.0756000	-0.5724400	0.9470200	0.0917400	-0.6479600	1.4744000	-0.3501200	-0.6306700	1.2112900	-0.4215900	-0.5836100	0.9519000	-0.4297500	-0.5775100	0.8916600	-0.1630000	-0.5933000	0.8916000	-0.0367900	-0.5914200	0.4813500	-0.0420000	-0.6443700	0.1195000	-0.0428400	-0.5684200	0.8962600	-0.2953700	-0.6395800	0.4688500	-0.2914400	-0.6766200	0.1031600	-0.3069100	-0.4850000	0.0535400	-0.3177400	-0.5124500	0.0529200	-0.3622200	-0.7214600	0.0553300	-0.2993200	-0.5092100	0.0428300	-0.0298100	-0.5256300	0.0563300	0.0265500	-0.7054600	0.0825000	-0.0788600
2	0.0166667	-0.6295600	1.4676500	-0.1714700	-0.6371400	1.4666600	0.0087500	-0.6669600	1.1916800	0.0756200	-0.5714100	0.9471300	0.0919400	-0.6481500	1.4744400	-0.3502300	-0.6306800	1.2112600	-0.4215900	-0.5838800	0.9519600	-0.4298800	-0.5776000	0.8916500	-0.1630100	-0.5938300	0.8915000	-0.0366500	-0.5903000	0.4873600	-0.0416900	-0.6443200	0.1195500	-0.0428500	-0.5669000	0.8963200	-0.2947600	-0.6393700	0.4633500	-0.2910500	-0.6766800	0.1031000	-0.3069000	-0.4848800	0.0539300	-0.3176700	-0.4925300	0.0613200	-0.3648600	-0.7202800	0.0494400	-0.2986600	-0.5090900	0.0429500	-0.0297800	-0.5254100	0.0564400	0.0265000	-0.7052700	0.0825500	-0.0788500
3	0.0333333	-0.6298200	1.4676700	-0.1715400	-0.6369500	1.4666000	0.0086900	-0.6669800	1.1917600	0.0756000	-0.5724200	0.9471200	0.0917300	-0.6480100	1.4743900	-0.3501300	-0.6307000	1.2112800	-0.4215900	-0.5835400	0.9519400	-0.4297600	-0.5776200	0.8916400	-0.1630300	-0.5934000	0.8916000	-0.0368100	-0.5904900	0.4871900	-0.0417100	-0.6444000	0.1195200	-0.0428700	-0.5685800	0.8962400	-0.2954200	-0.6394700	0.4744800	-0.2910100	-0.6766900	0.1031600	-0.3069100	-0.4849500	0.0536100	-0.3177300	-0.5315600	0.0504600	-0.3690400	-0.7201400	0.0547800	-0.2980600	-0.5304200	0.0336100	-0.0352500	-0.5257400	0.0563000	0.0265500	-0.7054600	0.0825200	-0.0789000
4	0.0500000	-0.6296000	1.4676300	-0.1714800	-0.6371000	1.4666400	0.0087500	-0.6670700	1.1917400	0.0756000	-0.5713400	0.9472600	0.0919500	-0.6482200	1.4744300	-0.3502500	-0.6307100	1.2112600	-0.4216000	-0.5838900	0.9519700	-0.4298900	-0.5776700	0.8916300	-0.1630300	-0.5939000	0.8915000	-0.0366600	-0.5904400	0.4873100	-0.0416800	-0.6444100	0.1195500	-0.0428800	-0.5669700	0.8963000	-0.2948000	-0.6396100	0.4689300	-0.2907000	-0.6768000	0.1031200	-0.3069200	-0.4849100	0.0539700	-0.3176800	-0.5114300	0.0589100	-0.3716600	-0.7202600	0.0547600	-0.2980400	-0.5302400	0.0337500	-0.0352100	-0.5254600	0.0564200	0.0264800	-0.7053500	0.0825600	-0.0788900
5	0.0666667	-0.6298500	1.4676500	-0.1715400	-0.6369300	1.4665700	0.0087000	-0.6670300	1.1917700	0.0756000	-0.5723700	0.9471600	0.0917400	-0.6676500	1.4759300	-0.3573200	-0.6307300	1.2112900	-0.4216000	-0.5835800	0.9519400	-0.4297600	-0.5776300	0.8916400	-0.1630300	-0.5933800	0.8916000	-0.0368100	-0.5905500	0.4871600	-0.0417000	-0.6444100	0.1195500	-0.0428800	-0.5686100	0.8962400	-0.2954300	-0.6395500	0.4688600	-0.2914000	-0.6767300	0.1031500	-0.3069100	-0.4849300	0.0536000	-0.3177500	-0.5127300	0.0582100	-0.3722100	-0.7201900	0.0547800	-0.2980500	-0.5304500	0.0336100	-0.0352400	-0.5257500	0.0563000	0.0265600	-0.7054600	0.0825500	-0.0789000
6	0.0833333	-0.6294800	1.4675900	-0.1714800	-0.6376900	1.4624400	0.0086500	-0.6671200	1.1916600	0.0756800	-0.5548700	0.9489300	0.0865800	-0.6481600	1.4744300	-0.3502300	-0.6307500	1.2112800	-0.4216100	-0.5839000	0.9569700	-0.4298800	-0.5776300	0.8916600	-0.1630300	-0.5938800	0.8915200	-0.0366900	-0.5896100	0.4825400	-0.0413100	-0.6443800	0.1194500	-0.0429000	-0.5668800	0.8963200	-0.2947600	-0.6392700	0.4633700	-0.2909900	-0.6769000	0.1030800	-0.3069200	-0.4846700	0.0541100	-0.3177000	-0.5114200	0.0589400	-0.3717000	-0.7202800	0.0546800	-0.2980400	-0.5301400	0.0337200	-0.0352300	-0.5251700	0.0564500	0.0264800	-0.7063100	0.0768400	-0.0783400
7	0.1000000	-0.6297300	1.4676300	-0.1715300	-0.6368300	1.4665700	0.0086700	-0.6671500	1.1917800	0.0756700	-0.5560000	0.9488100	0.0863300	-0.6479400	1.4743700	-0.3501000	-0.6307400	1.2113400	-0.4216100	-0.5835600	0.9569900	-0.4297500	-0.5775700	0.8916600	-0.1630100	-0.5934300	0.8916200	-0.0368400	-0.5896400	0.4823600	-0.0413500	-0.6444200	0.1194300	-0.0429100	-0.5487100	0.8987400	-0.2883400	-0.6391800	0.4635900	-0.2910100	-0.6767300	0.1030900	-0.3068800	-0.4844100	0.0537600	-0.3177000	-0.4932800	0.0664600	-0.3647000	-0.7201400	0.0547100	-0.2980100	-0.5303700	0.0335600	-0.0352700	-0.5254300	0.0563300	0.0265700	-0.7066300	0.0768600	-0.0784000
8	0.1166667	-0.6294700	1.4675900	-0.1714900	-0.6377300	1.4624700	0.0086500	-0.6671900	1.1917300	0.0756800	-0.5549600	0.9489100	0.0865600	-0.6480900	1.4744000	-0.3502400	-0.6307500	1.2113000	-0.4216000	-0.5839300	0.9570100	-0.4298900	-0.5776000	0.8916700	-0.1630200	-0.5939000	0.8915400	-0.0367000	-0.5895400	0.4825200	-0.0413100	-0.6443900	0.1194600	-0.0429000	-0.5668100	0.8963300	-0.2947200	-0.6393100	0.4633500	-0.2910300	-0.6767600	0.1031000	-0.3068800	-0.4843600	0.0541700	-0.3176300	-0.4919800	0.0671700	-0.3641600	-0.7201100	0.0547400	-0.2979800	-0.5301700	0.0337100	-0.0352500	-0.5250900	0.0564700	0.0264900	-0.7065100	0.0769000	-0.0783600
9	0.1333333	-0.6297400	1.4676400	-0.1715400	-0.6368500	1.4665800	0.0086700	-0.6671600	1.1917700	0.0756700	-0.5560200	0.9488100	0.0863400	-0.6479700	1.4743600	-0.3501200	-0.6307700	1.2113300	-0.4216200	-0.5835500	0.9569900	-0.4297500	-0.5776000	0.8916500	-0.1630200	-0.5934300	0.8916100	-0.0368400	-0.5903500	0.4872200	-0.0417500	-0.6443800	0.1194700	-0.0429100	-0.5685600	0.8913400	-0.2952700	-0.6393100	0.4635500	-0.2910500	-0.6766400	0.1031200	-0.3068600	-0.4844500	0.0537100	-0.3177300	-0.4932600	0.0664400	-0.3647200	-0.7199500	0.0547500	-0.2979600	-0.5303600	0.0335600	-0.0352800	-0.5082400	0.0633600	0.0212700	-0.7055300	0.0824500	-0.0789700
10	0.1500000	-0.6295400	1.4676100	-0.1714700	-0.6370900	1.4666400	0.0087500	-0.6671400	1.1917300	0.0756800	-0.5549600	0.9489100	0.0865600	-0.6481500	1.4744100	-0.3502200	-0.6308300	1.2113000	-0.4216100	-0.5839800	0.9570000	-0.4298900	-0.5776900	0.8916500	-0.1630100	-0.5940000	0.8915000	-0.0366900	-0.5895000	0.4825100	-0.0413200	-0.6444100	0.1194500	-0.0429000	-0.5669400	0.8963100	-0.2947000	-0.6393500	0.4633300	-0.2910200	-0.6768000	0.1030800	-0.3069000	-0.4843400	0.0542200	-0.3176400	-0.5112100	0.0589700	-0.3716800	-0.7202200	0.0546300	-0.2980100	-0.5302200	0.0336900	-0.0352200	-0.5251500	0.0564500	0.0265000	-0.7054300	0.0824600	-0.0789300
11	0.1666667	-0.6297500	1.4676500	-0.1715200	-0.6369000	1.4665800	0.0087000	-0.6671100	1.1917700	0.0756800	-0.5559600	0.9488400	0.0863500	-0.6479100	1.4743600	-0.3500900	-0.6308100	1.2113400	-0.4216100	-0.5835300	0.9569900	-0.4297300	-0.5776000	0.8916300	-0.1629900	-0.5934200	0.8915900	-0.0368300	-0.5896500	0.4823000	-0.0413700	-0.6444400	0.1194100	-0.0429100	-0.5488000	0.8987100	-0.2883000	-0.6393200	0.4635200	-0.2910300	-0.6766100	0.1031300	-0.3068400	-0.4844600	0.0537700	-0.3177600	-0.5125000	0.0582800	-0.3722400	-0.7199500	0.0546600	-0.2979400	-0.5091500	0.0427800	-0.0297800	-0.5254100	0.0563400	0.0266000	-0.7055700	0.0823500	-0.0789600
12	0.1833333	-0.6294900	1.4676100	-0.1714500	-0.6370600	1.4666500	0.0087600	-0.6671700	1.1917600	0.0756800	-0.5548400	0.9489500	0.0865800	-0.6480800	1.4744000	-0.3501900	-0.6308200	1.2113000	-0.4216100	-0.5839700	0.9569900	-0.4298900	-0.5776400	0.8916500	-0.1630000	-0.5940000	0.8914900	-0.0366700	-0.5895500	0.4824700	-0.0413300	-0.6444400	0.1194100	-0.0429100	-0.5471600	0.8987600	-0.2876700	-0.6393100	0.4633200	-0.2910200	-0.6767000	0.1031200	-0.3068600	-0.4844100	0.0542400	-0.3176700	-0.5112300	0.0590200	-0.3716900	-0.7201100	0.0546700	-0.2979600	-0.5089700	0.0429200	-0.0297500	-0.5251000	0.0564900	0.0265100	-0.7054700	0.0823700	-0.0789500
13	0.2000000	-0.6297900	1.4676700	-0.1715100	-0.6538600	1.4678500	0.0137300	-0.6670800	1.1918000	0.0756500	-0.5559500	0.9488400	0.0863500	-0.6479500	1.4743700	-0.3501000	-0.6307800	1.2112800	-0.4216200	-0.5833500	0.9570100	-0.4297600	-0.5775200	0.8916200	-0.1630200	-0.5933700	0.8915500	-0.0368500	-0.5896000	0.4822500	-0.0413900	-0.6443300	0.1194300	-0.0429300	-0.5486200	0.8938400	-0.2882700	-0.6393200	0.4635200	-0.2910100	-0.6766600	0.1031200	-0.3068100	-0.4844400	0.0537800	-0.3177400	-0.4933400	0.0665000	-0.3646900	-0.7201100	0.0547500	-0.2979100	-0.5090400	0.0427400	-0.0298100	-0.5253600	0.0562700	0.0266000	-0.7065800	0.0767200	-0.0783800
14	0.2166667	-0.6295000	1.4675900	-0.1714600	-0.6378400	1.4624600	0.0086900	-0.6676300	1.1872900	0.0757800	-0.5548200	0.9489300	0.0865600	-0.6480700	1.4743900	-0.3502000	-0.6307600	1.2112700	-0.4216100	-0.5838000	0.9519700	-0.4299000	-0.5775400	0.8916800	-0.1630400	-0.5766200	0.8935700	-0.0416300	-0.5900800	0.4874000	-0.0417700	-0.6443200	0.1194500	-0.0429700	-0.5666700	0.8963500	-0.2947300	-0.6392800	0.4633700	-0.2910100	-0.6766800	0.1031500	-0.3068600	-0.4845600	0.0541800	-0.3176400	-0.5114400	0.0589400	-0.3716700	-0.7201300	0.0548500	-0.2979700	-0.5088700	0.0429000	-0.0297500	-0.5250300	0.0564600	0.0264900	-0.7064100	0.0767000	-0.0784200
15	0.2333333	-0.6298100	1.4676100	-0.1715400	-0.6376300	1.4623900	0.0086300	-0.6677200	1.1873300	0.0758000	-0.5559300	0.9488300	0.0863200	-0.6480400	1.4743300	-0.3501400	-0.6307700	1.2113100	-0.4216300	-0.5833600	0.9519300	-0.4297200	-0.5774900	0.8917000	-0.1630300	-0.5760500	0.8936900	-0.0418100	-0.5903300	0.4872100	-0.0418700	-0.6442500	0.1194700	-0.0429500	-0.5485500	0.8988000	-0.2883400	-0.6391400	0.4635800	-0.2909600	-0.6766300	0.1031300	-0.3068600	-0.4845100	0.0537100	-0.3177000	-0.4933700	0.0664700	-0.3646700	-0.7201000	0.0548400	-0.2979900	-0.5090500	0.0427100	-0.0298100	-0.5082100	0.0633000	0.0212800	-0.7064000	0.0766600	-0.0784000
16	0.2500000	-0.6295400	1.4675700	-0.1714800	-0.6378100	1.4624600	0.0086700	-0.6672200	1.1917600	0.0756800	-0.5547900	0.9489500	0.0865700	-0.6481500	1.4743500	-0.3502400	-0.6307800	1.2112600	-0.4216300	-0.5838200	0.9519200	-0.4298900	-0.5775200	0.8917200	-0.1630300	-0.5766400	0.8935800	-0.0416300	-0.5901700	0.4874300	-0.0418200	-0.6442600	0.1194900	-0.0429500	-0.5469400	0.8988300	-0.2877100	-0.6391300	0.4634000	-0.2909700	-0.6767200	0.1031100	-0.3068800	-0.4843900	0.0542200	-0.3176100	-0.4920700	0.0671800	-0.3641400	-0.7201900	0.0548400	-0.2979900	-0.5088000	0.0428800	-0.0297800	-0.5078400	0.0634600	0.0211800	-0.7063200	0.0767100	-0.0783900
17	0.2666667	-0.6297900	1.4676100	-0.1715400	-0.6376200	1.4624000	0.0086200	-0.6671700	1.1918100	0.0756800	-0.5342200	0.9511800	0.0907400	-0.6480200	1.4743300	-0.3501400	-0.6307400	1.2113100	-0.4216200	-0.5833400	0.9519300	-0.4297200	-0.5774700	0.8917100	-0.1630200	-0.5760000	0.8937000	-0.0418100	-0.5903500	0.4872100	-0.0418500	-0.6442500	0.1194800	-0.0429600	-0.5485200	0.8988100	-0.2883300	-0.6390900	0.4636000	-0.2909600	-0.6766300	0.1031200	-0.3068600	-0.4844500	0.0537200	-0.3176900	-0.4933000	0.0664900	-0.3646600	-0.7201200	0.0548100	-0.2980000	-0.5090100	0.0427200	-0.0298100	-0.5081900	0.0633000	0.0212800	-0.7064000	0.0766800	-0.0784100
18	0.2833333	-0.6500200	1.4691600	-0.1775700	-0.6379300	1.4624800	0.0086500	-0.6669800	1.1916800	0.0756900	-0.5547600	0.9488800	0.0865800	-0.6679600	1.4759300	-0.3574600	-0.6306200	1.2112800	-0.4215800	-0.5838000	0.9519400	-0.4298900	-0.5776200	0.8917000	-0.1630500	-0.5767700	0.8935500	-0.0416300	-0.5909800	0.4814700	-0.0421300	-0.6443700	0.1193400	-0.0429200	-0.5667300	0.8963900	-0.2947500	-0.6393800	0.4686500	-0.2913400	-0.6766900	0.1030600	-0.3069000	-0.4853900	0.0483900	-0.3185000	-0.5116300	0.0529900	-0.3724000	-0.7203900	0.0493500	-0.2986800	-0.5061600	0.0389600	-0.0291600	-0.5078100	0.0634600	0.0211900	-0.7065800	0.0767200	-0.0783500
